<?xml version="1.0" encoding="utf-8"?>
<!-- Generator: Adobe Illustrator 27.0.0, SVG Export Plug-In . SVG Version: 6.00 Build 0)  -->
<svg version="1.1" id="Layer_1" xmlns="http://www.w3.org/2000/svg" xmlns:xlink="http://www.w3.org/1999/xlink" x="0px" y="0px"
	 viewBox="0 0 50 45" style="enable-background:new 0 0 50 45;" xml:space="preserve">
<path d="M18.4,35.8c-0.9,0-1.9,0.1-2.8,0c-1.9-0.2-3.4-1.7-3.7-3.4c-0.4-2,0.5-3.8,2.2-4.7c0.1-0.1,0.2-0.1,0.3-0.2
	c-1.8-7.9-3.5-15.8-5.3-23.8c-0.2,0-0.4,0-0.5,0c-2.3,0-4.7,0-7,0c-1.1,0-1.9-1-1.5-2c0.2-0.6,0.7-0.9,1.3-0.9c2.9,0,5.9,0,8.8,0
	c0.8,0,1.3,0.5,1.5,1.3c0.3,1.5,0.7,3,1,4.5c0.2,0,0.4,0,0.6,0c11.6,0,23.2,0,34.8,0c0.4,0,0.9,0.1,1.2,0.3c0.6,0.3,0.8,1,0.5,1.9
	c-0.8,2.8-1.6,5.6-2.4,8.4c-1.1,3.8-2.2,7.7-3.3,11.5c-0.3,1-0.7,1.4-1.8,1.4c-8.6,0-17.2,0-25.8,0c-1.2,0-1.9,0.5-1.9,1.5
	c0,0.9,0.7,1.5,1.9,1.5c8.6,0,17.2,0,25.8,0c1.2,0,1.9,0.5,1.9,1.5c0,0.9-0.7,1.5-1.9,1.5c-0.6,0-1.2,0-1.8,0
	c2.8,0.6,3.9,2.9,3.7,4.8c-0.3,2.3-2.1,4-4.4,4c-2.3,0-4.1-1.7-4.3-4c-0.2-1.9,0.9-4.1,3.7-4.8c-6.5,0-13,0-19.5,0
	c2.9,0.6,4,2.9,3.7,4.8c-0.3,2.3-2.1,4-4.4,4c-2.3,0-4.1-1.7-4.3-4C14.5,38.8,15.6,36.5,18.4,35.8z M13.4,9.6
	c1.3,5.9,2.6,11.7,3.9,17.5c8.1,0,16.2,0,24.3,0c1.7-5.8,3.3-11.7,5-17.5C35.5,9.6,24.5,9.6,13.4,9.6z M19,41.8
	c0.8,0,1.5-0.7,1.5-1.4c0-0.8-0.7-1.5-1.4-1.5c-0.8,0-1.5,0.7-1.5,1.4C17.6,41.1,18.2,41.8,19,41.8z M41.2,40.3
	c0-0.8-0.6-1.5-1.4-1.5c-0.8,0-1.5,0.6-1.5,1.4c0,0.8,0.6,1.5,1.4,1.5C40.5,41.8,41.2,41.1,41.2,40.3z"/>
</svg>
