<svg width="367" height="119" viewBox="0 0 367 119" fill="none" xmlns="http://www.w3.org/2000/svg">
<path d="M19.6111 66.9759C18.5065 66.9759 17.6111 66.0805 17.6111 64.9759V19.1024C17.6111 17.9978 16.7157 17.1024 15.6111 17.1024H2C0.895431 17.1024 0 16.207 0 15.1024V3.0241C0 1.91953 0.895431 1.0241 2 1.0241H55.3384C56.443 1.0241 57.3384 1.91953 57.3384 3.0241V15.1024C57.3384 16.207 56.443 17.1024 55.3384 17.1024H41.6249C40.5204 17.1024 39.6249 17.9978 39.6249 19.1024V64.9759C39.6249 66.0805 38.7295 66.9759 37.6249 66.9759H19.6111Z" fill="black"/>
<path d="M63.39 66.9759C62.2854 66.9759 61.39 66.0805 61.39 64.9759V3.0241C61.39 1.91953 62.2854 1.0241 63.39 1.0241H81.4039C82.5084 1.0241 83.4039 1.91953 83.4039 3.0241V22.0663C83.4039 23.1708 84.2993 24.0663 85.4039 24.0663H100.96C102.065 24.0663 102.96 23.1708 102.96 22.0663V3.02409C102.96 1.91953 103.856 1.0241 104.96 1.0241H122.974C124.079 1.0241 124.974 1.91953 124.974 3.0241V64.9759C124.974 66.0805 124.079 66.9759 122.974 66.9759H104.96C103.856 66.9759 102.96 66.0805 102.96 64.9759V45.9337C102.96 44.8292 102.065 43.9337 100.96 43.9337H85.4039C84.2993 43.9337 83.4039 44.8292 83.4039 45.9337V64.9759C83.4039 66.0805 82.5084 66.9759 81.4039 66.9759H63.39Z" fill="black"/>
<path d="M135.183 66.9759C134.078 66.9759 133.183 66.0805 133.183 64.9759V3.0241C133.183 1.91953 134.078 1.0241 135.183 1.0241H153.197C154.301 1.0241 155.197 1.91953 155.197 3.0241V64.9759C155.197 66.0805 154.301 66.9759 153.197 66.9759H135.183Z" fill="black"/>
<path d="M165.38 66.9759C164.275 66.9759 163.38 66.0805 163.38 64.9759V3.0241C163.38 1.91953 164.275 1.0241 165.38 1.0241H180.883C181.529 1.0241 182.135 1.3363 182.511 1.86229L199.991 26.3562C201.122 27.9403 203.619 27.1405 203.619 25.1944V3.0241C203.619 1.91953 204.515 1.0241 205.619 1.0241H223.633C224.738 1.0241 225.633 1.91953 225.633 3.0241V64.9759C225.633 66.0805 224.738 66.9759 223.633 66.9759H207.929C207.281 66.9759 206.673 66.6617 206.298 66.133L189.025 41.782C187.898 40.1923 185.394 40.9901 185.394 42.9391V64.9759C185.394 66.0805 184.498 66.9759 183.394 66.9759H165.38Z" fill="black"/>
<path d="M268.993 68C256.911 68 247.696 65.1325 241.348 59.3976C234.999 53.6627 231.825 45.2992 231.825 34.3072C231.825 23.1787 235.136 14.6787 241.757 8.80723C248.378 2.93574 257.969 0 270.529 0C274.761 0 278.515 0.238956 281.792 0.716869C284.641 1.12401 287.392 1.72936 290.043 2.53291C290.867 2.78259 291.416 3.5505 291.416 4.41131V18.8393C291.416 20.2317 290.027 21.1997 288.693 20.801C286.444 20.1289 284.178 19.647 281.894 19.3554C278.686 18.8775 275.409 18.6386 272.065 18.6386C266.467 18.6386 262.099 19.8333 258.959 22.2229C255.819 24.6125 254.249 28.6406 254.249 34.3072C254.249 39.7691 255.477 43.6606 257.935 45.9819C260.46 48.2349 264.112 49.3614 268.891 49.3614C271.222 49.3614 273.337 49.1461 275.238 48.7155C276.097 48.5208 276.672 47.7348 276.672 46.8537V43.5783C276.672 42.4737 275.777 41.5783 274.672 41.5783H266.693C265.588 41.5783 264.693 40.6829 264.693 39.5783V30.1627C264.693 29.0581 265.588 28.1627 266.693 28.1627H293C294.105 28.1627 295 29.0581 295 30.1627V60.6595C295 61.3409 294.656 61.98 294.067 62.3221C291.541 63.7883 288.371 65.0665 284.556 66.1566C280.256 67.3855 275.068 68 268.993 68Z" fill="black"/>
<path d="M295.831 97.0318C294.875 96.4795 294.547 95.2564 295.099 94.2998L305.883 75.621C306.056 75.3215 306.149 74.9822 306.151 74.6363L306.488 30.3846C306.5 28.8518 308.161 27.9014 309.488 28.6678L325.352 37.8267C325.999 38.2004 326.384 38.9037 326.35 39.6503L325.399 60.4151C325.325 62.0355 327.109 63.0655 328.475 62.1911L345.982 50.9851C346.612 50.5822 347.413 50.5638 348.061 50.9375L363.918 60.0927C365.247 60.86 365.252 62.7761 363.928 63.551L325.696 85.9192C325.397 86.0945 325.148 86.3448 324.974 86.6454L314.191 105.322C313.639 106.279 312.416 106.607 311.459 106.055L295.831 97.0318Z" fill="black"/>
</svg>
